
<svg width="233" height="50" viewBox="0 0 233 50" fill="none" xmlns="http://www.w3.org/2000/svg">
<path d="M22.7795 22.8327C21.2355 23.8907 19.4627 24.5769 16.9751 24.6055C13.9729 24.6627 11.714 22.6898 11.5139 19.7447C11.3995 18.1721 11.9142 16.6852 13.0007 15.5415C14.0586 14.3978 15.5169 13.7687 17.0609 13.7401C17.8615 13.7401 18.6907 13.8831 19.4055 14.1976C19.4055 14.1976 19.2054 15.8274 19.1482 16.5708L21.6072 16.5994L22.0647 12.9109L21.3785 12.482C20.0918 11.6814 18.5764 11.2525 17.0609 11.2811C14.8307 11.3097 12.6862 12.2533 11.1708 13.8831C9.62673 15.5415 8.88331 17.686 9.05487 19.9448C9.19783 21.9463 10.0556 23.7763 11.4853 25.063C12.9149 26.3783 14.8593 27.1217 16.9465 27.0931C17.0037 27.0931 17.0609 27.0931 17.0895 27.0931C18.3476 27.0645 19.7773 26.8072 21.3499 26.2067L23.1226 22.7469C23.0655 22.7469 23.0083 22.6612 22.7795 22.8327Z" fill="#FF414B"/>
<path d="M31.1573 31.6965L30.8714 35.0991V35.1277C30.757 36.4143 30.0708 37.5009 29.0414 38.0441C28.2122 38.473 27.3258 38.473 26.5252 38.0441C25.696 37.5867 25.2957 36.9004 25.1528 36.0426C24.924 34.6702 25.696 33.2405 26.754 32.5257L43.2808 21.7461C43.3951 22.6611 43.4809 23.5761 43.4809 24.5482C43.4809 35.6995 34.4169 44.7635 23.2656 44.7635C12.1143 44.7635 3.05035 35.6995 3.05035 24.5482C3.05035 13.3969 12.1143 4.33294 23.2656 4.33294C31.5862 4.33294 38.7631 9.39391 41.8511 16.6279L43.8812 15.3127C40.3357 7.44958 32.444 1.95972 23.2656 1.95972C10.7991 1.95972 0.677124 12.0817 0.677124 24.5482C0.677124 37.0148 10.7991 47.1367 23.2656 47.1367C35.7322 47.1367 45.8541 37.0148 45.8541 24.5482C45.8541 23.1186 45.7112 21.7175 45.4538 20.345C45.3109 19.4587 44.9678 18.2578 44.9106 18.0862L40.1927 21.0313L33.9594 24.9771C33.7307 24.1479 33.2446 23.3187 32.1867 22.8326C30.9286 22.2608 28.8985 22.6897 27.383 23.5475C27.383 23.5475 31.4718 15.6272 32.1581 14.3119C32.2153 14.2261 32.1295 14.1404 32.0437 14.1404H31.7864H24.3808L24.0662 16.7137H25.2386H28.2408L22.3792 27.8936C22.2649 28.1224 22.4936 28.3511 22.7224 28.2367L25.8676 26.5783C27.383 25.8063 29.8992 24.2051 31.1287 25.1201C31.3003 25.263 31.529 25.6062 31.5576 25.9779C31.5576 26.1208 31.5004 26.2638 31.3575 26.3496L25.0956 30.5814C23.0655 32.0396 22.2649 34.1841 22.465 36.2142C22.6366 37.9298 23.6945 39.388 25.2671 40.2744C26.0963 40.7319 26.9827 40.932 27.8977 40.9034C28.6697 40.8749 29.4703 40.6747 30.2137 40.2744C31.9865 39.3308 33.1874 37.5009 33.3876 35.385L33.9022 29.6664L31.1573 31.6965Z" fill="#FF414B"/>
<path d="M77.7536 12.5988H79.6511L82.9445 18.264C83.0258 18.4086 83.1207 18.5802 83.2291 18.779C83.3466 18.9688 83.4595 19.163 83.5679 19.3618C83.6854 19.5606 83.7938 19.7503 83.8932 19.931C84.0016 20.1117 84.0875 20.2563 84.1507 20.3647L84.1643 20.3512C84.1643 20.2156 84.1597 20.044 84.1507 19.8362C84.1507 19.6283 84.1507 19.407 84.1507 19.1721C84.1507 18.9371 84.1462 18.6932 84.1372 18.4402C84.1372 18.1872 84.1372 17.9432 84.1372 17.7083V12.5988H85.5467V22.2893H83.7035L80.4914 16.8409C80.3468 16.5879 80.2022 16.3395 80.0577 16.0955C79.9131 15.8425 79.7821 15.6121 79.6646 15.4043C79.5472 15.1874 79.4433 15.0022 79.3529 14.8486C79.2626 14.695 79.1993 14.5821 79.1632 14.5098H79.1496V15.1603C79.1496 15.4585 79.1496 15.7838 79.1496 16.1362C79.1586 16.4795 79.1632 16.8229 79.1632 17.1662V22.2893H77.7536V12.5988Z" fill="#0F0F0F"/>
<path d="M88.3118 12.5988H94.3836V13.8457H89.7485V16.7189H94.0583V17.9523H89.7485V21.0559H94.4785V22.2893H88.3118V12.5988Z" fill="#0F0F0F"/>
<path d="M98.0011 18.4808C98.0011 18.8874 98.0192 19.2398 98.0553 19.538C98.0915 19.8271 98.1728 20.0937 98.2993 20.3376C98.4529 20.6358 98.6923 20.8707 99.0176 21.0424C99.3519 21.2141 99.7269 21.2999 100.143 21.2999C100.558 21.2999 100.933 21.2141 101.267 21.0424C101.611 20.8707 101.859 20.6358 102.013 20.3376C102.139 20.1027 102.221 19.8362 102.257 19.538C102.293 19.2398 102.311 18.8874 102.311 18.4808V12.5988H103.734V18.5215C103.734 19.0907 103.689 19.5877 103.599 20.0123C103.517 20.437 103.35 20.821 103.097 21.1644C102.799 21.58 102.383 21.9007 101.85 22.1266C101.326 22.3435 100.757 22.4519 100.143 22.4519C99.5281 22.4519 98.9589 22.3435 98.4348 22.1266C97.9198 21.9098 97.5177 21.5981 97.2286 21.1915C97.0931 21.0017 96.9801 20.812 96.8898 20.6222C96.8085 20.4235 96.7452 20.2202 96.7 20.0123C96.6549 19.7955 96.6232 19.5696 96.6052 19.3347C96.5871 19.0907 96.5781 18.8197 96.5781 18.5215V12.5988H98.0011V18.4808Z" fill="#0F0F0F"/>
<path d="M106.411 12.5988H109.338C109.826 12.5988 110.287 12.6349 110.72 12.7072C111.154 12.7705 111.543 12.9196 111.886 13.1545C112.265 13.4075 112.55 13.7282 112.74 14.1167C112.939 14.4962 113.038 14.9345 113.038 15.4314C113.038 15.8561 112.975 16.2265 112.848 16.5428C112.722 16.859 112.55 17.1301 112.333 17.3559C112.116 17.5728 111.863 17.749 111.574 17.8845C111.294 18.02 111 18.1194 110.693 18.1827C110.865 18.4628 111.037 18.7474 111.208 19.0365C111.389 19.3257 111.579 19.6329 111.778 19.9581C111.976 20.2834 112.189 20.6358 112.415 21.0153C112.64 21.3948 112.893 21.8194 113.174 22.2893H111.466C111.104 21.6478 110.725 20.9882 110.327 20.3105C109.93 19.6329 109.559 18.9959 109.216 18.3995H107.834V22.2893H106.411V12.5988ZM107.834 17.1662H109.324C110.002 17.1662 110.531 17.0352 110.91 16.7732C111.299 16.5111 111.493 16.0819 111.493 15.4856C111.493 14.8802 111.299 14.4556 110.91 14.2116C110.522 13.9677 109.993 13.8457 109.324 13.8457H108.552C108.308 13.8457 108.069 13.8502 107.834 13.8592V17.1662Z" fill="#0F0F0F"/>
<path d="M119.478 12.4091C120.209 12.4091 120.874 12.531 121.47 12.775C122.075 13.0189 122.59 13.3623 123.015 13.805C123.449 14.2478 123.783 14.7809 124.018 15.4043C124.253 16.0187 124.37 16.7009 124.37 17.4508C124.37 18.2008 124.253 18.8874 124.018 19.5109C123.792 20.1253 123.462 20.6539 123.029 21.0966C122.604 21.5303 122.089 21.8691 121.483 22.1131C120.887 22.357 120.223 22.479 119.491 22.479C118.759 22.479 118.091 22.357 117.485 22.1131C116.889 21.8691 116.378 21.5303 115.954 21.0966C115.529 20.6539 115.199 20.1253 114.964 19.5109C114.73 18.8874 114.612 18.2008 114.612 17.4508C114.612 16.7009 114.73 16.0187 114.964 15.4043C115.199 14.7809 115.529 14.2478 115.954 13.805C116.378 13.3623 116.889 13.0189 117.485 12.775C118.091 12.531 118.755 12.4091 119.478 12.4091ZM119.464 13.6153C118.94 13.6153 118.47 13.7102 118.055 13.8999C117.648 14.0896 117.3 14.3562 117.011 14.6995C116.731 15.0338 116.514 15.4359 116.36 15.9058C116.216 16.3756 116.144 16.8861 116.144 17.4373C116.144 17.9884 116.22 18.4989 116.374 18.9688C116.528 19.4386 116.744 19.8452 117.024 20.1885C117.314 20.5319 117.661 20.8029 118.068 21.0017C118.484 21.1915 118.954 21.2863 119.478 21.2863C119.993 21.2863 120.458 21.1915 120.874 21.0017C121.289 20.812 121.637 20.5454 121.917 20.2021C122.206 19.8587 122.428 19.4522 122.581 18.9823C122.735 18.5125 122.812 17.9975 122.812 17.4373C122.812 16.8771 122.735 16.362 122.581 15.8922C122.428 15.4224 122.206 15.0203 121.917 14.686C121.637 14.3426 121.289 14.0806 120.874 13.8999C120.458 13.7102 119.988 13.6153 119.464 13.6153Z" fill="#0F0F0F"/>
<path d="M126.534 12.5988H129.177C130.984 12.5988 132.33 13.0189 133.216 13.8592C134.11 14.6905 134.558 15.8922 134.558 17.4644C134.558 18.133 134.463 18.7609 134.273 19.3482C134.083 19.9355 133.781 20.446 133.365 20.8797C132.958 21.3134 132.425 21.6568 131.766 21.9098C131.115 22.1628 130.329 22.2893 129.407 22.2893H126.534V12.5988ZM127.971 21.083H129.069C129.701 21.083 130.261 21.0198 130.749 20.8933C131.246 20.7668 131.662 20.5635 131.996 20.2834C132.33 19.9943 132.583 19.6193 132.755 19.1585C132.927 18.6977 133.013 18.133 133.013 17.4644C133.013 16.2627 132.683 15.3546 132.023 14.7402C131.373 14.1258 130.433 13.8186 129.204 13.8186C129.078 13.8186 128.942 13.8231 128.798 13.8321C128.662 13.8321 128.531 13.8321 128.405 13.8321H127.971V21.083Z" fill="#0F0F0F"/>
<path d="M136.748 12.5988H142.82V13.8457H138.185V16.7189H142.495V17.9523H138.185V21.0559H142.915V22.2893H136.748V12.5988Z" fill="#0F0F0F"/>
<path d="M153.677 17.1662V22.2893H152.376V21.8014C152.376 21.5755 152.381 21.3315 152.39 21.0695C152.263 21.2231 152.105 21.3857 151.915 21.5574C151.726 21.7291 151.495 21.8872 151.224 22.0318C150.962 22.1673 150.655 22.2802 150.302 22.3706C149.959 22.4609 149.571 22.5061 149.137 22.5061C148.459 22.5061 147.831 22.3887 147.253 22.1537C146.675 21.9098 146.173 21.571 145.749 21.1373C145.333 20.6945 145.008 20.166 144.773 19.5515C144.538 18.9281 144.42 18.2324 144.42 17.4644C144.42 16.7325 144.533 16.0594 144.759 15.445C144.994 14.8305 145.324 14.2975 145.749 13.8457C146.173 13.3939 146.684 13.0415 147.28 12.7885C147.885 12.5356 148.559 12.4091 149.3 12.4091C149.905 12.4091 150.452 12.4904 150.939 12.653C151.427 12.8066 151.852 13.0235 152.213 13.3036C152.575 13.5746 152.878 13.8999 153.122 14.2794C153.365 14.6498 153.551 15.0564 153.677 15.4992H152.2C152.091 15.2462 151.956 15.0067 151.793 14.7809C151.631 14.5459 151.432 14.3426 151.197 14.171C150.971 13.9993 150.7 13.8638 150.384 13.7644C150.068 13.665 149.702 13.6153 149.286 13.6153C148.789 13.6153 148.337 13.7011 147.931 13.8728C147.524 14.0445 147.172 14.2975 146.874 14.6318C146.584 14.957 146.359 15.3591 146.196 15.838C146.042 16.3078 145.965 16.8454 145.965 17.4508C145.965 18.0381 146.042 18.5712 146.196 19.0501C146.349 19.5199 146.571 19.9265 146.86 20.2699C147.149 20.6042 147.492 20.8617 147.89 21.0424C148.297 21.2231 148.753 21.3134 149.259 21.3134C149.783 21.3134 150.235 21.2276 150.614 21.0559C151.003 20.8843 151.323 20.6584 151.576 20.3783C151.829 20.0982 152.024 19.7865 152.159 19.4431C152.295 19.0907 152.376 18.7429 152.403 18.3995H148.866V17.1662H153.677Z" fill="#0F0F0F"/>
<path d="M156.051 12.5988H162.123V13.8457H157.488V16.7189H161.798V17.9523H157.488V21.0559H162.218V22.2893H156.051V12.5988Z" fill="#0F0F0F"/>
<path d="M164.412 12.5988H166.31L169.603 18.264C169.685 18.4086 169.78 18.5802 169.888 18.779C170.005 18.9688 170.118 19.163 170.227 19.3618C170.344 19.5606 170.453 19.7503 170.552 19.931C170.66 20.1117 170.746 20.2563 170.81 20.3647L170.823 20.3512C170.823 20.2156 170.819 20.044 170.81 19.8362C170.81 19.6283 170.81 19.407 170.81 19.1721C170.81 18.9371 170.805 18.6932 170.796 18.4402C170.796 18.1872 170.796 17.9432 170.796 17.7083V12.5988H172.206V22.2893H170.362L167.15 16.8409C167.006 16.5879 166.861 16.3395 166.717 16.0955C166.572 15.8425 166.441 15.6121 166.323 15.4043C166.206 15.1874 166.102 15.0022 166.012 14.8486C165.921 14.695 165.858 14.5821 165.822 14.5098H165.808V15.1603C165.808 15.4585 165.808 15.7838 165.808 16.1362C165.818 16.4795 165.822 16.8229 165.822 17.1662V22.2893H164.412V12.5988Z" fill="#0F0F0F"/>
<path d="M174.971 12.5988H181.042V13.8457H176.407V16.7189H180.717V17.9523H176.407V21.0559H181.137V22.2893H174.971V12.5988Z" fill="#0F0F0F"/>
<path d="M183.332 12.5988H186.259C186.747 12.5988 187.208 12.6349 187.642 12.7072C188.075 12.7705 188.464 12.9196 188.807 13.1545C189.187 13.4075 189.471 13.7282 189.661 14.1167C189.86 14.4962 189.959 14.9345 189.959 15.4314C189.959 15.8561 189.896 16.2265 189.77 16.5428C189.643 16.859 189.471 17.1301 189.254 17.3559C189.038 17.5728 188.785 17.749 188.496 17.8845C188.215 18.02 187.922 18.1194 187.615 18.1827C187.786 18.4628 187.958 18.7474 188.13 19.0365C188.31 19.3257 188.5 19.6329 188.699 19.9581C188.898 20.2834 189.11 20.6358 189.336 21.0153C189.562 21.3948 189.815 21.8194 190.095 22.2893H188.387C188.026 21.6478 187.646 20.9882 187.249 20.3105C186.851 19.6329 186.481 18.9959 186.137 18.3995H184.755V22.2893H183.332V12.5988ZM184.755 17.1662H186.246C186.923 17.1662 187.452 17.0352 187.831 16.7732C188.22 16.5111 188.414 16.0819 188.414 15.4856C188.414 14.8802 188.22 14.4556 187.831 14.2116C187.443 13.9677 186.914 13.8457 186.246 13.8457H185.473C185.229 13.8457 184.99 13.8502 184.755 13.8592V17.1662Z" fill="#0F0F0F"/>
<path d="M190.896 22.2893C191.547 20.6629 192.202 19.0501 192.862 17.4508C193.521 15.8425 194.176 14.2252 194.827 12.5988H196.548L200.411 22.2893H198.906L197.741 19.3618H193.499L192.36 22.2893H190.896ZM195.626 13.8999C195.337 14.6047 195.057 15.3139 194.786 16.0277C194.524 16.7325 194.248 17.4508 193.959 18.1827H197.28C197.199 17.9839 197.131 17.8213 197.077 17.6948C197.031 17.5592 196.977 17.4056 196.914 17.234C196.851 17.0533 196.765 16.8274 196.656 16.5563C196.557 16.2762 196.412 15.8922 196.223 15.4043C196.114 15.1152 196.006 14.8396 195.897 14.5776C195.798 14.3065 195.717 14.0806 195.653 13.8999H195.626Z" fill="#0F0F0F"/>
<path d="M202.915 13.8457H200.286V12.5988H206.968V13.8457H204.338V22.2893H202.915V13.8457Z" fill="#0F0F0F"/>
<path d="M208.905 12.5988H210.328V22.2893H208.905V12.5988Z" fill="#0F0F0F"/>
<path d="M217.366 12.4091C218.098 12.4091 218.762 12.531 219.358 12.775C219.964 13.0189 220.479 13.3623 220.903 13.805C221.337 14.2478 221.671 14.7809 221.906 15.4043C222.141 16.0187 222.259 16.7009 222.259 17.4508C222.259 18.2008 222.141 18.8874 221.906 19.5109C221.68 20.1253 221.351 20.6539 220.917 21.0966C220.492 21.5303 219.977 21.8691 219.372 22.1131C218.775 22.357 218.111 22.479 217.38 22.479C216.648 22.479 215.979 22.357 215.374 22.1131C214.777 21.8691 214.267 21.5303 213.842 21.0966C213.417 20.6539 213.088 20.1253 212.853 19.5109C212.618 18.8874 212.5 18.2008 212.5 17.4508C212.5 16.7009 212.618 16.0187 212.853 15.4043C213.088 14.7809 213.417 14.2478 213.842 13.805C214.267 13.3623 214.777 13.0189 215.374 12.775C215.979 12.531 216.643 12.4091 217.366 12.4091ZM217.352 13.6153C216.828 13.6153 216.359 13.7102 215.943 13.8999C215.536 14.0896 215.188 14.3562 214.899 14.6995C214.619 15.0338 214.402 15.4359 214.249 15.9058C214.104 16.3756 214.032 16.8861 214.032 17.4373C214.032 17.9884 214.109 18.4989 214.262 18.9688C214.416 19.4386 214.633 19.8452 214.913 20.1885C215.202 20.5319 215.55 20.8029 215.956 21.0017C216.372 21.1915 216.842 21.2863 217.366 21.2863C217.881 21.2863 218.346 21.1915 218.762 21.0017C219.178 20.812 219.525 20.5454 219.806 20.2021C220.095 19.8587 220.316 19.4522 220.47 18.9823C220.623 18.5125 220.7 17.9975 220.7 17.4373C220.7 16.8771 220.623 16.362 220.47 15.8922C220.316 15.4224 220.095 15.0203 219.806 14.686C219.525 14.3426 219.178 14.0806 218.762 13.8999C218.346 13.7102 217.876 13.6153 217.352 13.6153Z" fill="#0F0F0F"/>
<path d="M224.423 12.5988H226.32L229.613 18.264C229.695 18.4086 229.79 18.5802 229.898 18.779C230.015 18.9688 230.128 19.163 230.237 19.3618C230.354 19.5606 230.463 19.7503 230.562 19.931C230.671 20.1117 230.756 20.2563 230.82 20.3647L230.833 20.3512C230.833 20.2156 230.829 20.044 230.82 19.8362C230.82 19.6283 230.82 19.407 230.82 19.1721C230.82 18.9371 230.815 18.6932 230.806 18.4402C230.806 18.1872 230.806 17.9432 230.806 17.7083V12.5988H232.216V22.2893H230.372L227.16 16.8409C227.016 16.5879 226.871 16.3395 226.727 16.0955C226.582 15.8425 226.451 15.6121 226.334 15.4043C226.216 15.1874 226.112 15.0022 226.022 14.8486C225.931 14.695 225.868 14.5821 225.832 14.5098H225.819V15.1603C225.819 15.4585 225.819 15.7838 225.819 16.1362C225.828 16.4795 225.832 16.8229 225.832 17.1662V22.2893H224.423V12.5988Z" fill="#0F0F0F"/>
<path d="M86.4005 36.6239C86.0662 37.5546 85.5241 38.291 84.7741 38.8331C84.0332 39.3752 83.089 39.6463 81.9415 39.6463C81.2368 39.6463 80.5908 39.5243 80.0035 39.2803C79.4162 39.0364 78.9102 38.693 78.4855 38.2503C78.0699 37.8076 77.7446 37.279 77.5097 36.6646C77.2748 36.0412 77.1573 35.3545 77.1573 34.6045C77.1573 33.8636 77.2748 33.186 77.5097 32.5716C77.7446 31.9481 78.0744 31.415 78.4991 30.9723C78.9328 30.5296 79.4433 30.1862 80.0306 29.9423C80.6269 29.6983 81.2865 29.5763 82.0093 29.5763C83.1387 29.5763 84.0784 29.8474 84.8284 30.3895C85.5783 30.9226 86.1069 31.6951 86.4141 32.7071H84.9503C84.6883 32.1017 84.3179 31.6319 83.839 31.2976C83.3691 30.9542 82.7547 30.7825 81.9958 30.7825C81.4717 30.7825 81.0064 30.8774 80.5998 31.0672C80.1932 31.2479 79.8499 31.5054 79.5698 31.8397C79.2897 32.174 79.0728 32.5761 78.9192 33.0459C78.7746 33.5067 78.7024 34.0217 78.7024 34.591C78.7024 35.1512 78.7746 35.6707 78.9192 36.1496C79.0728 36.6194 79.2897 37.026 79.5698 37.3694C79.8499 37.7127 80.1932 37.9792 80.5998 38.169C81.0154 38.3587 81.4853 38.4536 82.0093 38.4536C82.7231 38.4536 83.3149 38.2955 83.7848 37.9792C84.2636 37.654 84.6386 37.2022 84.9097 36.6239H86.4005Z" fill="#0F0F0F"/>
<path d="M88.4045 39.4565V29.7661H89.8275V33.8727H94.3272V29.7661H95.7367V39.4565H94.3272V35.0789H89.8275V39.4565H88.4045Z" fill="#0F0F0F"/>
<path d="M97.2661 39.4565C97.9166 37.8302 98.5717 36.2173 99.2313 34.6181C99.8909 33.0098 100.546 31.3924 101.196 29.7661H102.918L106.78 39.4565H105.276L104.11 36.5291H99.8683L98.7298 39.4565H97.2661ZM101.996 31.0672C101.707 31.7719 101.427 32.4812 101.156 33.195C100.894 33.8998 100.618 34.6181 100.329 35.3499H103.65C103.568 35.1512 103.501 34.9885 103.446 34.862C103.401 34.7265 103.347 34.5729 103.284 34.4012C103.22 34.2205 103.135 33.9946 103.026 33.7236C102.927 33.4435 102.782 33.0595 102.592 32.5716C102.484 32.2824 102.376 32.0068 102.267 31.7448C102.168 31.4738 102.086 31.2479 102.023 31.0672H101.996Z" fill="#0F0F0F"/>
<path d="M108.356 29.7661H109.793V38.2232H114.048V39.4565H108.356V29.7661Z" fill="#0F0F0F"/>
<path d="M116.003 29.7661H117.439V38.2232H121.695V39.4565H116.003V29.7661Z" fill="#0F0F0F"/>
<path d="M123.649 29.7661H129.721V31.013H125.086V33.8862H129.395V35.1195H125.086V38.2232H129.816V39.4565H123.649V29.7661Z" fill="#0F0F0F"/>
<path d="M132.01 29.7661H133.907L137.201 35.4313C137.282 35.5758 137.377 35.7475 137.485 35.9463C137.603 36.136 137.716 36.3303 137.824 36.5291C137.942 36.7278 138.05 36.9176 138.15 37.0983C138.258 37.279 138.344 37.4236 138.407 37.532L138.421 37.5184C138.421 37.3829 138.416 37.2112 138.407 37.0034C138.407 36.7956 138.407 36.5742 138.407 36.3393C138.407 36.1044 138.403 35.8604 138.394 35.6075C138.394 35.3545 138.394 35.1105 138.394 34.8756V29.7661H139.803V39.4565H137.96L134.748 34.0082C134.603 33.7552 134.459 33.5067 134.314 33.2628C134.169 33.0098 134.038 32.7794 133.921 32.5716C133.804 32.3547 133.7 32.1695 133.609 32.0159C133.519 31.8623 133.456 31.7493 133.42 31.6771H133.406V32.3276C133.406 32.6258 133.406 32.951 133.406 33.3034C133.415 33.6468 133.42 33.9901 133.42 34.3335V39.4565H132.01V29.7661Z" fill="#0F0F0F"/>
<path d="M151.229 34.3335V39.4565H149.928V38.9686C149.928 38.7427 149.932 38.4988 149.941 38.2368C149.815 38.3904 149.656 38.553 149.467 38.7247C149.277 38.8963 149.047 39.0545 148.776 39.199C148.513 39.3346 148.206 39.4475 147.854 39.5379C147.511 39.6282 147.122 39.6734 146.688 39.6734C146.011 39.6734 145.383 39.5559 144.804 39.321C144.226 39.077 143.725 38.7382 143.3 38.3045C142.884 37.8618 142.559 37.3332 142.324 36.7188C142.089 36.0954 141.972 35.3996 141.972 34.6316C141.972 33.8998 142.085 33.2266 142.311 32.6122C142.546 31.9978 142.875 31.4647 143.3 31.013C143.725 30.5612 144.235 30.2088 144.832 29.9558C145.437 29.7028 146.11 29.5763 146.851 29.5763C147.456 29.5763 148.003 29.6576 148.491 29.8203C148.979 29.9739 149.403 30.1907 149.765 30.4708C150.126 30.7419 150.429 31.0672 150.673 31.4466C150.917 31.8171 151.102 32.2237 151.229 32.6664H149.751C149.643 32.4134 149.507 32.174 149.345 31.9481C149.182 31.7132 148.983 31.5099 148.748 31.3382C148.523 31.1666 148.251 31.031 147.935 30.9316C147.619 30.8322 147.253 30.7825 146.837 30.7825C146.34 30.7825 145.889 30.8684 145.482 31.0401C145.076 31.2117 144.723 31.4647 144.425 31.799C144.136 32.1243 143.91 32.5264 143.747 33.0053C143.594 33.4751 143.517 34.0127 143.517 34.6181C143.517 35.2054 143.594 35.7385 143.747 36.2173C143.901 36.6872 144.122 37.0938 144.411 37.4371C144.701 37.7714 145.044 38.0289 145.441 38.2097C145.848 38.3904 146.304 38.4807 146.81 38.4807C147.334 38.4807 147.786 38.3949 148.166 38.2232C148.554 38.0515 148.875 37.8256 149.128 37.5455C149.381 37.2654 149.575 36.9537 149.711 36.6104C149.846 36.258 149.928 35.9101 149.955 35.5668H146.417V34.3335H151.229Z" fill="#0F0F0F"/>
<path d="M153.603 29.7661H159.675V31.013H155.039V33.8862H159.349V35.1195H155.039V38.2232H159.77V39.4565H153.603V29.7661Z" fill="#0F0F0F"/>
<path d="M165.785 29.7661H167.683L170.976 35.4313C171.057 35.5758 171.152 35.7475 171.261 35.9463C171.378 36.136 171.491 36.3303 171.6 36.5291C171.717 36.7278 171.825 36.9176 171.925 37.0983C172.033 37.279 172.119 37.4236 172.182 37.532L172.196 37.5184C172.196 37.3829 172.191 37.2112 172.182 37.0034C172.182 36.7956 172.182 36.5742 172.182 36.3393C172.182 36.1044 172.178 35.8604 172.169 35.6075C172.169 35.3545 172.169 35.1105 172.169 34.8756V29.7661H173.578V39.4565H171.735L168.523 34.0082C168.378 33.7552 168.234 33.5067 168.089 33.2628C167.945 33.0098 167.814 32.7794 167.696 32.5716C167.579 32.3547 167.475 32.1695 167.385 32.0159C167.294 31.8623 167.231 31.7493 167.195 31.6771H167.181V32.3276C167.181 32.6258 167.181 32.951 167.181 33.3034C167.19 33.6468 167.195 33.9901 167.195 34.3335V39.4565H165.785V29.7661Z" fill="#0F0F0F"/>
<path d="M176.343 29.7661H182.415V31.013H177.78V33.8862H182.09V35.1195H177.78V38.2232H182.51V39.4565H176.343V29.7661Z" fill="#0F0F0F"/>
<path d="M186.507 31.013H183.878V29.7661H190.56V31.013H187.93V39.4565H186.507V31.013Z" fill="#0F0F0F"/>
<path d="M193.757 39.4565C193.414 37.8302 193.066 36.2173 192.713 34.6181C192.37 33.0098 192.027 31.3924 191.683 29.7661H193.228C193.409 30.6967 193.59 31.6138 193.771 32.5173C193.96 33.4119 194.141 34.3244 194.313 35.2551C194.367 35.5442 194.417 35.8017 194.462 36.0276C194.507 36.2444 194.548 36.4568 194.584 36.6646C194.629 36.8634 194.67 37.0757 194.706 37.3016C194.742 37.5184 194.783 37.7669 194.828 38.047H194.868C194.914 37.7669 194.959 37.5184 195.004 37.3016C195.049 37.0757 195.094 36.8634 195.139 36.6646C195.194 36.4568 195.248 36.2444 195.302 36.0276C195.356 35.8017 195.415 35.5487 195.478 35.2686L196.739 29.7661H198.677L200.113 36.2038C200.186 36.52 200.244 36.8227 200.29 37.1118C200.344 37.3919 200.403 37.7037 200.466 38.047H200.493C200.547 37.794 200.597 37.5546 200.642 37.3287L200.777 36.651C200.823 36.4252 200.868 36.1948 200.913 35.9598C200.958 35.7159 201.008 35.4539 201.062 35.1738L202.133 29.7661H203.597C203.235 31.3924 202.874 33.0098 202.512 34.6181C202.151 36.2173 201.794 37.8302 201.442 39.4565H199.422L198.135 33.588C198.035 33.1634 197.949 32.7523 197.877 32.3547C197.814 31.9572 197.746 31.5686 197.674 31.1891H197.647C197.602 31.4783 197.543 31.79 197.471 32.1243C197.398 32.4586 197.321 32.811 197.24 33.1814L195.831 39.4565H193.757Z" fill="#0F0F0F"/>
<path d="M209.667 29.5763C210.398 29.5763 211.063 29.6983 211.659 29.9423C212.264 30.1862 212.779 30.5296 213.204 30.9723C213.638 31.415 213.972 31.9481 214.207 32.5716C214.442 33.186 214.559 33.8681 214.559 34.6181C214.559 35.368 214.442 36.0547 214.207 36.6782C213.981 37.2926 213.651 37.8211 213.218 38.2639C212.793 38.6976 212.278 39.0364 211.672 39.2803C211.076 39.5243 210.412 39.6463 209.68 39.6463C208.948 39.6463 208.28 39.5243 207.674 39.2803C207.078 39.0364 206.567 38.6976 206.143 38.2639C205.718 37.8211 205.388 37.2926 205.153 36.6782C204.919 36.0547 204.801 35.368 204.801 34.6181C204.801 33.8681 204.919 33.186 205.153 32.5716C205.388 31.9481 205.718 31.415 206.143 30.9723C206.567 30.5296 207.078 30.1862 207.674 29.9423C208.28 29.6983 208.944 29.5763 209.667 29.5763ZM209.653 30.7825C209.129 30.7825 208.659 30.8774 208.244 31.0672C207.837 31.2569 207.489 31.5235 207.2 31.8668C206.92 32.2011 206.703 32.6032 206.549 33.073C206.405 33.5429 206.333 34.0534 206.333 34.6045C206.333 35.1557 206.409 35.6662 206.563 36.136C206.717 36.6059 206.933 37.0125 207.214 37.3558C207.503 37.6992 207.851 37.9702 208.257 38.169C208.673 38.3587 209.143 38.4536 209.667 38.4536C210.182 38.4536 210.647 38.3587 211.063 38.169C211.478 37.9792 211.826 37.7127 212.106 37.3694C212.395 37.026 212.617 36.6194 212.77 36.1496C212.924 35.6797 213.001 35.1647 213.001 34.6045C213.001 34.0443 212.924 33.5293 212.77 33.0595C212.617 32.5896 212.395 32.1876 212.106 31.8532C211.826 31.5099 211.478 31.2479 211.063 31.0672C210.647 30.8774 210.177 30.7825 209.653 30.7825Z" fill="#0F0F0F"/>
<path d="M216.723 29.7661H219.651C220.139 29.7661 220.599 29.8022 221.033 29.8745C221.467 29.9377 221.855 30.0868 222.199 30.3217C222.578 30.5747 222.863 30.8955 223.053 31.284C223.251 31.6635 223.351 32.1017 223.351 32.5987C223.351 33.0233 223.287 33.3938 223.161 33.71C223.034 34.0263 222.863 34.2973 222.646 34.5232C222.429 34.7401 222.176 34.9162 221.887 35.0518C221.607 35.1873 221.313 35.2867 221.006 35.3499C221.178 35.63 221.349 35.9147 221.521 36.2038C221.702 36.4929 221.891 36.8001 222.09 37.1254C222.289 37.4507 222.501 37.8031 222.727 38.1825C222.953 38.562 223.206 38.9867 223.486 39.4565H221.779C221.417 38.815 221.038 38.1554 220.64 37.4778C220.243 36.8001 219.872 36.1631 219.529 35.5668H218.146V39.4565H216.723V29.7661ZM218.146 34.3335H219.637C220.315 34.3335 220.843 34.2024 221.223 33.9404C221.611 33.6784 221.806 33.2492 221.806 32.6529C221.806 32.0475 221.611 31.6228 221.223 31.3789C220.834 31.1349 220.306 31.013 219.637 31.013H218.865C218.621 31.013 218.381 31.0175 218.146 31.0265V34.3335Z" fill="#0F0F0F"/>
<path d="M225.521 29.7661H226.931V34.1708L230.807 29.7661H232.555L228.449 34.1979C229.126 35.0744 229.831 35.9553 230.563 36.8408C231.295 37.7172 231.999 38.5891 232.677 39.4565H230.875C230.233 38.6072 229.578 37.7805 228.909 36.9763C228.241 36.1722 227.581 35.3545 226.931 34.5232V39.4565H225.521V29.7661Z" fill="#0F0F0F"/>
<line x1="61.3393" y1="0.60437" x2="61.3393" y2="49.3955" stroke="black" stroke-width="0.25"/>
</svg>
